<svg width="69" height="69" viewBox="0 0 69 69" fill="none" xmlns="http://www.w3.org/2000/svg">
<g clip-path="url(#clip0_1_887)">
<path d="M63.25 50.3125C57.5 50.3125 46 57.5891 40.25 57.5891C34.5 57.5891 28.0313 53.1875 28.0313 53.1875C28.0313 53.1875 35.7765 54.625 40.25 54.625C44.7235 54.625 46 53.0983 46 51.0312C46 46 37.4555 45.218 33.1344 44.5596C28.888 42.1963 24.403 40.7272 17.3765 40.1321C17.3334 40.5403 17.2701 40.9486 17.1551 41.354L11.3793 61.709C17.917 64.6875 31.4611 69 37.375 69C46 69 69 57.5 69 54.625C69 51.75 66.125 50.3125 63.25 50.3125Z" fill="#DFBDAB"/>
<path d="M10.0625 63.25H2.15625C0.966 63.25 0 62.284 0 61.0938V36.6562C0 35.466 0.966 34.5 2.15625 34.5C12.2331 34.5 16.928 37.996 17.1206 38.1455C17.8164 38.6774 18.124 39.5773 17.894 40.4225L12.144 61.6572C11.8881 62.5974 11.0371 63.25 10.0625 63.25Z" fill="#EFE6DD"/>
<path d="M0 44.0564V61.0936C0 62.2839 0.966 63.2499 2.15625 63.2499H10.0625C10.9135 63.2499 11.6696 62.7525 12.0204 61.9993C12.0721 61.89 12.1124 61.775 12.144 61.6571L15.5192 49.1911L0 44.0564Z" fill="#9A5B6A"/>
<path d="M69 54.6249C69 56.0337 63.3938 59.5699 56.6375 62.7899C54.3375 63.8824 51.9225 64.9462 49.5363 65.8662C48.9038 66.0962 48.3 66.3262 47.6963 66.5562C46.6325 66.9299 45.6263 67.2749 44.62 67.5912C43.6138 67.9074 42.6363 68.1662 41.7163 68.3962C40.0488 68.7699 38.5825 68.9999 37.375 68.9999C36.9438 68.9999 36.455 68.9712 35.9088 68.9137C35.5638 68.8849 35.19 68.8562 34.8163 68.7987C29.6125 68.1374 21.6488 65.7224 15.6975 63.4799C14.8925 63.1924 14.0875 62.8762 13.3688 62.5887C12.88 62.3874 12.4488 62.1862 12.0175 62.0137C12.075 61.8987 12.1038 61.7837 12.1325 61.6687L15.525 49.1912L28.4338 53.4462L28.4913 53.4749C29.2675 53.9637 31.0213 54.9987 33.1775 55.9187C33.6375 56.1199 34.1263 56.2924 34.6438 56.4937C35.0463 56.6374 35.4775 56.7812 35.9088 56.8962C36.2825 57.0112 36.6275 57.0974 37.0013 57.1837C37.3463 57.2699 37.72 57.3274 38.065 57.3849C38.4388 57.4424 38.7838 57.4999 39.1575 57.5287C39.5313 57.5574 39.905 57.5862 40.25 57.5862C46 57.5862 57.5 50.3124 63.25 50.3124C66.125 50.3124 69 51.7499 69 54.6249Z" fill="#DFBDAB"/>
<path d="M46 34.5C42.9583 34.5 39.9194 33.7698 36.9006 32.3093H36.8977C35.4401 31.6049 34.5 30.0926 34.5 28.4625C34.5 22.2812 39.6578 17.25 46 17.25C52.3423 17.25 57.5 22.2812 57.5 28.4625C57.5 30.0926 56.5599 31.6049 55.1023 32.3093C52.0806 33.7726 49.0417 34.5 46 34.5Z" fill="#D3B89E"/>
<path d="M35.8427 8.72288C35.121 5.2355 35.9174 1.17313 38.8355 0.161128C41.055 -0.617998 44.3182 0.862628 45.379 6.00313C46.1007 9.4905 45.3043 13.55 42.3862 14.562C40.1437 15.344 36.9007 13.8404 35.8427 8.72288Z" fill="#D3B89E"/>
<path d="M49.841 14.5619C46.9229 13.5499 46.1265 9.49038 46.8482 6.00301C47.9062 0.882631 51.152 -0.620994 53.3916 0.161006C56.3098 1.17301 57.1061 5.23538 56.3845 8.72276C55.3265 13.8403 52.0835 15.3439 49.841 14.5619Z" fill="#D3B89E"/>
<path d="M26.2373 16.7068C24.6043 14.01 24.7394 10.422 27.3643 8.97877C29.7189 7.68789 32.9331 8.94427 34.6955 11.848C36.3285 14.5419 36.1934 18.1299 33.5685 19.576C31.0414 20.9618 27.8444 19.3546 26.2373 16.7068Z" fill="#D3B89E"/>
<path d="M58.4315 19.5731C55.8067 18.1299 55.6715 14.5419 57.3045 11.8451C59.064 8.94427 62.2783 7.68214 64.6358 8.97589C67.2607 10.4191 67.3958 14.0071 65.7628 16.7039C64.1557 19.3546 60.9587 20.9618 58.4315 19.5731Z" fill="#D3B89E"/>
<path d="M46 17.25C39.6577 17.25 34.5 22.2812 34.5 28.4625C34.5 30.0926 35.4401 31.6049 36.8977 32.3092H36.9006C39.9194 33.7726 42.9583 34.5 46 34.5V17.25Z" fill="#26180F"/>
<path d="M39.997 -0.0317347C39.5916 -0.0317347 39.1977 0.0343903 38.8355 0.163765C35.9173 1.17577 35.121 5.23814 35.8426 8.72552C36.7281 13.0093 39.146 14.7601 41.2246 14.7601C41.63 14.7601 42.021 14.694 42.389 14.5675C45.3071 13.5555 46.1035 9.49602 45.3819 6.00864C44.4906 1.70477 42.067 -0.0346097 39.997 -0.0317347Z" fill="#26180F"/>
<path d="M29.3825 8.47266C28.6782 8.47266 27.991 8.63653 27.3643 8.97866C24.7394 10.4219 24.6043 14.0099 26.2373 16.7038C27.439 18.6875 29.5263 20.0848 31.5618 20.0848C32.2489 20.0848 32.9303 19.9238 33.5685 19.5759C36.1934 18.1327 36.3285 14.5447 34.6955 11.8479C33.4018 9.71466 31.326 8.47266 29.3825 8.47266Z" fill="#26180F"/>
</g>
<defs>
<clipPath id="clip0_1_887">
<rect width="69" height="69" fill="white"/>
</clipPath>
</defs>
</svg>
