<svg width="32" height="36" viewBox="0 0 32 36" fill="none" xmlns="http://www.w3.org/2000/svg">
<path d="M31.7725 9.02734C29.718 9.02734 27.8223 8.34672 26.3001 7.19852C24.5542 5.88227 23.2998 3.95148 22.8569 1.72609C22.7472 1.17625 22.6881 0.608828 22.6825 0.0273438H16.8135V16.0642L16.8065 24.8484C16.8065 27.1968 15.2772 29.188 13.1573 29.8884C12.542 30.0916 11.8776 30.1879 11.1857 30.1499C10.3026 30.1014 9.475 29.8349 8.75571 29.4046C7.225 28.4891 6.18719 26.8284 6.15907 24.9285C6.11477 21.9592 8.51524 19.5384 11.4824 19.5384C12.0681 19.5384 12.6306 19.634 13.1573 19.8077V15.4244V13.8487C12.6018 13.7664 12.0365 13.7235 11.4648 13.7235C8.21711 13.7235 5.17961 15.0735 3.00836 17.5056C1.36727 19.3436 0.382893 21.6885 0.231018 24.1473C0.0320339 27.3775 1.21399 30.448 3.50617 32.7135C3.84297 33.0461 4.19664 33.3548 4.56649 33.6395C6.53172 35.152 8.9343 35.9718 11.4648 35.9718C12.0365 35.9718 12.6018 35.9296 13.1573 35.8473C15.5212 35.4972 17.7023 34.4151 19.4235 32.7135C21.5385 30.6231 22.7071 27.8479 22.7198 24.8941L22.6895 11.7766C23.6985 12.5549 24.8017 13.199 25.9858 13.6989C27.8273 14.4759 29.7798 14.8696 31.7894 14.8689V10.6073V9.02594C31.7908 9.02734 31.7739 9.02734 31.7725 9.02734Z" fill="white"/>
</svg>
